<svg height="512" viewBox="0 0 512 512" width="512" xmlns="http://www.w3.org/2000/svg"><g id="Flat"><path d="m480 144h-20.328a7.951 7.951 0 0 1 -7.687-5.8 111.385 111.385 0 0 0 -10.554-25.48 7.957 7.957 0 0 1 1.33-9.544l14.376-14.376a8 8 0 0 0 0-11.314l-22.627-22.623a8 8 0 0 0 -11.314 0l-14.376 14.376a7.957 7.957 0 0 1 -9.544 1.33 111.385 111.385 0 0 0 -25.476-10.554 7.953 7.953 0 0 1 -5.8-7.687v-20.328a8 8 0 0 0 -8-8h-32a8 8 0 0 0 -8 8v20.328a7.953 7.953 0 0 1 -5.8 7.687 111.385 111.385 0 0 0 -25.48 10.554 7.957 7.957 0 0 1 -9.544-1.33l-14.376-14.376a8 8 0 0 0 -11.314 0l-22.623 22.627a8 8 0 0 0 0 11.314l14.376 14.376a7.957 7.957 0 0 1 1.33 9.544 111.385 111.385 0 0 0 -10.554 25.48 7.951 7.951 0 0 1 -7.687 5.8h-20.328a8 8 0 0 0 -8 8v32a8 8 0 0 0 8 8h20.328a7.951 7.951 0 0 1 7.687 5.8 111.385 111.385 0 0 0 10.554 25.48 7.957 7.957 0 0 1 -1.33 9.544l-14.376 14.372a8 8 0 0 0 0 11.314l22.627 22.627a8 8 0 0 0 11.314 0l14.376-14.376a7.957 7.957 0 0 1 9.544-1.33 111.385 111.385 0 0 0 25.48 10.554 7.952 7.952 0 0 1 5.8 7.687v20.324a8 8 0 0 0 8 8h32a8 8 0 0 0 8-8v-20.328a7.952 7.952 0 0 1 5.8-7.687 111.385 111.385 0 0 0 25.48-10.554 7.957 7.957 0 0 1 9.544 1.33l14.372 14.376a8 8 0 0 0 11.314 0l22.627-22.627a8 8 0 0 0 0-11.314l-14.38-14.376a7.957 7.957 0 0 1 -1.33-9.544 111.385 111.385 0 0 0 10.554-25.48 7.951 7.951 0 0 1 7.687-5.8h20.328a8 8 0 0 0 8-8v-31.996a8 8 0 0 0 -8-8zm-136 64a40 40 0 1 1 40-40 40 40 0 0 1 -40 40z" fill="#86b63b"/><path d="m344.135 255.95a87.965 87.965 0 0 1 -62.361-150.175l11.315 11.313a72.009 72.009 0 0 0 90.611 110.994l8.838 13.337a87.492 87.492 0 0 1 -48.403 14.531z" fill="#78a732"/><path d="m406.226 230.225-11.315-11.313a72.009 72.009 0 0 0 -90.611-110.994l-8.838-13.337a88.008 88.008 0 0 1 110.764 135.644z" fill="#78a732"/><path d="m473.646 416a56.1 56.1 0 0 0 -1.527-12.975l15.881-9.169-16-27.712-15.892 9.175a55.923 55.923 0 0 0 -22.462-12.987v-18.332h-32v18.332a55.923 55.923 0 0 0 -22.462 12.987l-15.892-9.175-16 27.712 15.882 9.169a55.853 55.853 0 0 0 0 25.95l-15.882 9.169 16 27.712 15.892-9.175a55.923 55.923 0 0 0 22.462 12.987v18.332h32v-18.332a55.923 55.923 0 0 0 22.462-12.987l15.892 9.175 16-27.712-15.881-9.169a56.1 56.1 0 0 0 1.527-12.975zm-56 24a24 24 0 1 1 24-24 24 24 0 0 1 -24 24z" fill="#86b63b"/><path d="m482.461 346.726a95.54 95.54 0 0 0 -66.461-26.726 96.535 96.535 0 0 0 -22.161 2.568l-3.678-15.568a112.2 112.2 0 0 1 103.378 28.185z" fill="#eaeae8"/><path d="m484.836 76.369a170.124 170.124 0 0 0 -49.205-49.2l8.738-13.4a183.64 183.64 0 0 1 53.869 53.869z" fill="#eaeae8"/><path d="m152 248h64v64h-64z" fill="#fdb683"/><path d="m104 312h160v176h-160z" fill="#ffb431"/><path d="m232 312-31.06 77.65-16.94 42.35-16.94-42.35-31.06-77.65z" fill="#dfdfdd"/><path d="m200.94 389.65-16.94 42.35-16.94-42.35 8.94-53.65-8-24h32l-8 24z" fill="#86b63b"/><path d="m112 216a64 64 0 0 0 64 64h16.35a63.65 63.65 0 0 0 63.65-63.65v-88.35h-144z" fill="#fdbf92"/><path d="m216 192a16 16 0 1 1 16-16 16.019 16.019 0 0 1 -16 16z" fill="#375e8d"/><path d="m152 192a16 16 0 1 1 16-16 16.019 16.019 0 0 1 -16 16z" fill="#375e8d"/><path d="m104 216h8v-48h-8a24 24 0 0 0 -24 24 24 24 0 0 0 24 24z" fill="#fdb683"/><path d="m264 168h-8v48h8a24 24 0 0 0 24-24 24 24 0 0 0 -24-24z" fill="#fdb683"/><path d="m184 239.294a51.2 51.2 0 0 1 -28.438-8.638l8.876-13.312a35.174 35.174 0 0 0 39.124 0l8.876 13.312a51.2 51.2 0 0 1 -28.438 8.638z" fill="#f6a368"/><path d="m112 128v40l32-40z" fill="#375e8d"/><path d="m256 128h-32l32 40z" fill="#375e8d"/><path d="m264.979 145.669-45.643 5.071a205.717 205.717 0 0 1 -22.742 1.26h-25.188a205.717 205.717 0 0 1 -22.742-1.26l-45.643-5.071a16.887 16.887 0 0 1 -15.021-16.783 16.886 16.886 0 0 1 16.886-16.886h158.228a16.886 16.886 0 0 1 16.886 16.886 16.887 16.887 0 0 1 -15.021 16.783z" fill="#ffb431"/><path d="m264 96v16h-160v-16a63.968 63.968 0 0 1 64-64h32a63.981 63.981 0 0 1 64 64z" fill="#fcab1e"/><path d="m168 24h32v88h-32z" fill="#ffb431"/><g fill="#f99e0c"><path d="m144 36.66v51.34h-16v-41.97a63.411 63.411 0 0 1 16-9.37z"/><path d="m240 46.03v41.97h-16v-51.34a63.411 63.411 0 0 1 16 9.37z"/><path d="m176 424h16v64h-16z"/></g><path d="m264 312h16a32 32 0 0 1 32 32v120a24 24 0 0 1 -24 24h-24z" fill="#dfdfdd"/><path d="m88 312h16a0 0 0 0 1 0 0v176a0 0 0 0 1 0 0h-24a24 24 0 0 1 -24-24v-120a32 32 0 0 1 32-32z" fill="#dfdfdd"/><path d="m240 424-128 64h-32a24 24 0 0 1 -24-24v-40l184-48z" fill="#d5d5d3"/><path d="m240 376h72v64h-40l-32-16z" fill="#fdbf92"/><path d="m24 256h48v232h-48z" fill="#375e8d"/><circle cx="48" cy="256" fill="#2b4c73" r="24"/><path d="m104 432 152 56h32a24 24 0 0 0 24-24v-40l-208-48z" fill="#dfdfdd"/><path d="m104 376-32-24v24h-48v56h80z" fill="#fdbf92"/><path d="m128 408h16v16h-16z" fill="#bebebc"/></g></svg>